<?xml version="1.0" encoding="UTF-8" standalone="no"?>
<!DOCTYPE svg PUBLIC "-//W3C//DTD SVG 1.1//EN"
 "http://www.w3.org/Graphics/SVG/1.1/DTD/svg11.dtd">
<!-- Generated by graphviz version 2.43.0 (0)
 -->
<!-- Title: PI Pages: 1 -->
<svg width="1089pt" height="659pt"
 viewBox="0.00 0.00 1088.60 658.60" xmlns="http://www.w3.org/2000/svg" xmlns:xlink="http://www.w3.org/1999/xlink">
<g id="graph0" class="graph" transform="scale(1 1) rotate(0) translate(28.8 629.8)">
<title>PI</title>
<polygon fill="white" stroke="transparent" points="-28.8,28.8 -28.8,-629.8 1059.8,-629.8 1059.8,28.8 -28.8,28.8"/>
<text text-anchor="middle" x="515.5" y="-7.2" font-family="DejaVu Sans" font-size="11.00" fill="#17324d">Ontologia PublicInvestment (pi) — vista d&#39;insieme semplificata · v0.1 · https://w3id.org/italia/PublicInvestment/</text>
<!-- prog -->
<g id="node1" class="node">
<title>prog</title>
<path fill="#17324d" stroke="#17324d" stroke-width="1.6" d="M162,-324C162,-324 12,-324 12,-324 6,-324 0,-318 0,-312 0,-312 0,-294 0,-294 0,-288 6,-282 12,-282 12,-282 162,-282 162,-282 168,-282 174,-288 174,-294 174,-294 174,-312 174,-312 174,-318 168,-324 162,-324"/>
<text text-anchor="middle" x="87" y="-306.6" font-family="DejaVu Sans" font-size="13.00" fill="white">Progetto di</text>
<text text-anchor="middle" x="87" y="-292.6" font-family="DejaVu Sans" font-size="13.00" fill="white">investimento pubblico</text>
</g>
<!-- cup -->
<g id="node2" class="node">
<title>cup</title>
<path fill="#e6ecf2" stroke="#17324d" stroke-width="1.6" d="M478.5,-71C478.5,-71 379.5,-71 379.5,-71 373.5,-71 367.5,-65 367.5,-59 367.5,-59 367.5,-45 367.5,-45 367.5,-39 373.5,-33 379.5,-33 379.5,-33 478.5,-33 478.5,-33 484.5,-33 490.5,-39 490.5,-45 490.5,-45 490.5,-59 490.5,-59 490.5,-65 484.5,-71 478.5,-71"/>
<text text-anchor="middle" x="429" y="-55.2" font-family="DejaVu Sans" font-size="11.00" fill="#17324d">Codice unico</text>
<text text-anchor="middle" x="429" y="-43.2" font-family="DejaVu Sans" font-size="11.00" fill="#17324d">di progetto (CUP)</text>
</g>
<!-- prog&#45;&gt;cup -->
<g id="edge1" class="edge">
<title>prog&#45;&gt;cup</title>
<path fill="none" stroke="#17324d" d="M99.83,-281.76C118.74,-249.48 158.62,-187.83 207,-150 253.01,-114.03 314.3,-88.2 360.67,-72.13"/>
<polygon fill="#17324d" stroke="#17324d" points="361.56,-74.41 367.39,-69.83 359.98,-69.77 361.56,-74.41"/>
<text text-anchor="middle" x="264" y="-152.4" font-family="DejaVu Sans" font-size="9.50" fill="#17324d"> &#160;ha cup &#160;</text>
</g>
<!-- interv -->
<g id="node3" class="node">
<title>interv</title>
<path fill="#e6ecf2" stroke="#17324d" stroke-width="1.2" d="M491,-531C491,-531 367,-531 367,-531 361,-531 355,-525 355,-519 355,-519 355,-505 355,-505 355,-499 361,-493 367,-493 367,-493 491,-493 491,-493 497,-493 503,-499 503,-505 503,-505 503,-519 503,-519 503,-525 497,-531 491,-531"/>
<text text-anchor="middle" x="429" y="-515.2" font-family="DejaVu Sans" font-size="11.00" fill="#17324d">Intervento di</text>
<text text-anchor="middle" x="429" y="-503.2" font-family="DejaVu Sans" font-size="11.00" fill="#17324d">investimento pubblico</text>
</g>
<!-- prog&#45;&gt;interv -->
<g id="edge2" class="edge">
<title>prog&#45;&gt;interv</title>
<path fill="none" stroke="#17324d" d="M101.5,-324.4C121.23,-354 160.66,-407.26 207,-438 249.49,-466.18 303.69,-484.55 347.79,-495.94"/>
<polygon fill="#17324d" stroke="#17324d" points="347.39,-498.36 354.77,-497.71 348.59,-493.61 347.39,-498.36"/>
<text text-anchor="middle" x="264" y="-499.4" font-family="DejaVu Sans" font-size="9.50" fill="#17324d"> &#160;ha intervento di</text>
<text text-anchor="middle" x="264" y="-489.4" font-family="DejaVu Sans" font-size="9.50" fill="#17324d">investimento pubblico &#160;</text>
</g>
<!-- titolare -->
<g id="node4" class="node">
<title>titolare</title>
<path fill="#e6ecf2" stroke="#17324d" stroke-width="1.2" d="M492,-393C492,-393 366,-393 366,-393 360,-393 354,-387 354,-381 354,-381 354,-367 354,-367 354,-361 360,-355 366,-355 366,-355 492,-355 492,-355 498,-355 504,-361 504,-367 504,-367 504,-381 504,-381 504,-387 498,-393 492,-393"/>
<text text-anchor="middle" x="429" y="-377.2" font-family="DejaVu Sans" font-size="11.00" fill="#17324d">Soggetto titolare</text>
<text text-anchor="middle" x="429" y="-365.2" font-family="DejaVu Sans" font-size="11.00" fill="#17324d">progetto investimento</text>
</g>
<!-- prog&#45;&gt;titolare -->
<g id="edge3" class="edge">
<title>prog&#45;&gt;titolare</title>
<path fill="none" stroke="#17324d" d="M174.12,-321.11C185.18,-323.43 196.36,-325.77 207,-328 253.33,-337.69 305.14,-348.47 346.94,-357.16"/>
<polygon fill="#17324d" stroke="#17324d" points="346.47,-359.57 353.82,-358.6 347.47,-354.77 346.47,-359.57"/>
<text text-anchor="middle" x="264" y="-352.4" font-family="DejaVu Sans" font-size="9.50" fill="#17324d"> &#160;ha soggetto titolare &#160;</text>
</g>
<!-- norma -->
<g id="node6" class="node">
<title>norma</title>
<path fill="#e6ecf2" stroke="#17324d" stroke-width="1.2" d="M469.5,-239C469.5,-239 388.5,-239 388.5,-239 382.5,-239 376.5,-233 376.5,-227 376.5,-227 376.5,-213 376.5,-213 376.5,-207 382.5,-201 388.5,-201 388.5,-201 469.5,-201 469.5,-201 475.5,-201 481.5,-207 481.5,-213 481.5,-213 481.5,-227 481.5,-227 481.5,-233 475.5,-239 469.5,-239"/>
<text text-anchor="middle" x="429" y="-223.2" font-family="DejaVu Sans" font-size="11.00" fill="#17324d">Norma di</text>
<text text-anchor="middle" x="429" y="-211.2" font-family="DejaVu Sans" font-size="11.00" fill="#17324d">finanziamento</text>
</g>
<!-- prog&#45;&gt;norma -->
<g id="edge5" class="edge">
<title>prog&#45;&gt;norma</title>
<path fill="none" stroke="#17324d" d="M137.38,-281.9C158.52,-273.51 183.66,-264.36 207,-258 261.2,-243.24 324.5,-233.05 369.43,-226.96"/>
<polygon fill="#17324d" stroke="#17324d" points="369.87,-229.37 376.48,-226.02 369.22,-224.52 369.87,-229.37"/>
<text text-anchor="middle" x="264" y="-270.4" font-family="DejaVu Sans" font-size="9.50" fill="#17324d"> &#160;ha normativa</text>
<text text-anchor="middle" x="264" y="-260.4" font-family="DejaVu Sans" font-size="9.50" fill="#17324d">di riferimento &#160;</text>
</g>
<!-- addr -->
<g id="node11" class="node">
<title>addr</title>
<path fill="#f5f5f5" stroke="#17324d" stroke-width="1.2" d="M452.5,-169C452.5,-169 405.5,-169 405.5,-169 399.5,-169 393.5,-163 393.5,-157 393.5,-157 393.5,-143 393.5,-143 393.5,-137 399.5,-131 405.5,-131 405.5,-131 452.5,-131 452.5,-131 458.5,-131 464.5,-137 464.5,-143 464.5,-143 464.5,-157 464.5,-157 464.5,-163 458.5,-169 452.5,-169"/>
<text text-anchor="middle" x="429" y="-153.2" font-family="DejaVu Sans" font-size="11.00" fill="#17324d">Address</text>
<text text-anchor="middle" x="429" y="-141.2" font-family="DejaVu Sans" font-size="11.00" fill="#17324d">(riuso)</text>
</g>
<!-- prog&#45;&gt;addr -->
<g id="edge4" class="edge">
<title>prog&#45;&gt;addr</title>
<path fill="none" stroke="#17324d" d="M108.34,-281.63C130.56,-259.51 168.19,-225.52 207,-206 265.4,-176.62 340.44,-161.84 386.33,-155.05"/>
<polygon fill="#17324d" stroke="#17324d" points="386.86,-157.45 393.44,-154.03 386.16,-152.6 386.86,-157.45"/>
<text text-anchor="middle" x="264" y="-218.4" font-family="DejaVu Sans" font-size="9.50" fill="#17324d"> &#160;ha indirizzo</text>
<text text-anchor="middle" x="264" y="-208.4" font-family="DejaVu Sans" font-size="9.50" fill="#17324d">o riferimento &#160;</text>
</g>
<!-- tema -->
<g id="node12" class="node">
<title>tema</title>
<path fill="#eef5ee" stroke="#2e7d32" stroke-width="1.2" d="M471.5,-461C471.5,-461 386.5,-461 386.5,-461 380.5,-461 374.5,-455 374.5,-449 374.5,-449 374.5,-437 374.5,-437 374.5,-431 380.5,-425 386.5,-425 386.5,-425 471.5,-425 471.5,-425 477.5,-425 483.5,-431 483.5,-437 483.5,-437 483.5,-449 483.5,-449 483.5,-455 477.5,-461 471.5,-461"/>
<text text-anchor="middle" x="429" y="-440.2" font-family="DejaVu Sans" font-size="11.00" fill="#2e7d32">Tematica PNRR</text>
</g>
<!-- prog&#45;&gt;tema -->
<g id="edge6" class="edge">
<title>prog&#45;&gt;tema</title>
<path fill="none" stroke="#2e7d32" d="M122.86,-324.13C146.16,-337.72 177.79,-355.18 207,-368 259.94,-391.23 322.51,-411.86 367.54,-425.58"/>
<polygon fill="#2e7d32" stroke="#2e7d32" points="366.92,-427.95 374.33,-427.63 368.34,-423.26 366.92,-427.95"/>
<text text-anchor="middle" x="264" y="-422.4" font-family="DejaVu Sans" font-size="9.50" fill="#2e7d32"> &#160;ha tematica pnrr</text>
<text text-anchor="middle" x="264" y="-412.4" font-family="DejaVu Sans" font-size="9.50" fill="#2e7d32">di riferimento &#160;</text>
</g>
<!-- subinv -->
<g id="node13" class="node">
<title>subinv</title>
<path fill="#eef5ee" stroke="#2e7d32" stroke-width="1.2" d="M794,-350C794,-350 695,-350 695,-350 689,-350 683,-344 683,-338 683,-338 683,-324 683,-324 683,-318 689,-312 695,-312 695,-312 794,-312 794,-312 800,-312 806,-318 806,-324 806,-324 806,-338 806,-338 806,-344 800,-350 794,-350"/>
<text text-anchor="middle" x="744.5" y="-334.2" font-family="DejaVu Sans" font-size="11.00" fill="#2e7d32">Sub&#45;investimento</text>
<text text-anchor="middle" x="744.5" y="-322.2" font-family="DejaVu Sans" font-size="11.00" fill="#2e7d32">PNRR</text>
</g>
<!-- prog&#45;&gt;subinv -->
<g id="edge7" class="edge">
<title>prog&#45;&gt;subinv</title>
<path fill="none" stroke="#2e7d32" d="M174.06,-306.02C258.19,-309.04 389.92,-313.95 504,-319 561.96,-321.57 627.78,-324.89 675.73,-327.39"/>
<polygon fill="#2e7d32" stroke="#2e7d32" points="675.86,-329.85 682.97,-327.77 676.11,-324.96 675.86,-329.85"/>
<text text-anchor="middle" x="429" y="-331.4" font-family="DejaVu Sans" font-size="9.50" fill="#2e7d32"> &#160;ha subinvestimento</text>
<text text-anchor="middle" x="429" y="-321.4" font-family="DejaVu Sans" font-size="9.50" fill="#2e7d32">PNRR &#160;</text>
</g>
<!-- cup&#45;&gt;cup -->
<g id="edge15" class="edge">
<title>cup&#45;&gt;cup</title>
<path fill="none" stroke="#17324d" stroke-dasharray="5,2" d="M402.76,-71.1C391.9,-86.75 400.65,-103 429,-103 453.58,-103 463.43,-90.78 458.53,-77.32"/>
<polygon fill="#17324d" stroke="#17324d" points="460.68,-76.14 455.24,-71.1 456.34,-78.43 460.68,-76.14"/>
<text text-anchor="middle" x="429" y="-105.4" font-family="DejaVu Sans" font-size="9.50" fill="#17324d"> &#160;ha cup collegato &#160;</text>
</g>
<!-- storia -->
<g id="node7" class="node">
<title>storia</title>
<path fill="#e6ecf2" stroke="#17324d" stroke-width="1.2" d="M792.5,-71C792.5,-71 696.5,-71 696.5,-71 690.5,-71 684.5,-65 684.5,-59 684.5,-59 684.5,-45 684.5,-45 684.5,-39 690.5,-33 696.5,-33 696.5,-33 792.5,-33 792.5,-33 798.5,-33 804.5,-39 804.5,-45 804.5,-45 804.5,-59 804.5,-59 804.5,-65 798.5,-71 792.5,-71"/>
<text text-anchor="middle" x="744.5" y="-55.2" font-family="DejaVu Sans" font-size="11.00" fill="#17324d">Storia di CUP</text>
<text text-anchor="middle" x="744.5" y="-43.2" font-family="DejaVu Sans" font-size="11.00" fill="#17324d">(stati nel tempo)</text>
</g>
<!-- cup&#45;&gt;storia -->
<g id="edge14" class="edge">
<title>cup&#45;&gt;storia</title>
<path fill="none" stroke="#17324d" d="M490.82,-52C544.33,-52 622.07,-52 677.17,-52"/>
<polygon fill="#17324d" stroke="#17324d" points="677.45,-54.45 684.45,-52 677.45,-49.55 677.45,-54.45"/>
<text text-anchor="middle" x="593.5" y="-54.4" font-family="DejaVu Sans" font-size="9.50" fill="#17324d"> &#160;ha stato di cup &#160;</text>
</g>
<!-- natura -->
<g id="node8" class="node">
<title>natura</title>
<path fill="#e6ecf2" stroke="#17324d" stroke-width="1.2" d="M774.5,-531C774.5,-531 714.5,-531 714.5,-531 708.5,-531 702.5,-525 702.5,-519 702.5,-519 702.5,-505 702.5,-505 702.5,-499 708.5,-493 714.5,-493 714.5,-493 774.5,-493 774.5,-493 780.5,-493 786.5,-499 786.5,-505 786.5,-505 786.5,-519 786.5,-519 786.5,-525 780.5,-531 774.5,-531"/>
<text text-anchor="middle" x="744.5" y="-515.2" font-family="DejaVu Sans" font-size="11.00" fill="#17324d">Natura di</text>
<text text-anchor="middle" x="744.5" y="-503.2" font-family="DejaVu Sans" font-size="11.00" fill="#17324d">intervento</text>
</g>
<!-- interv&#45;&gt;natura -->
<g id="edge10" class="edge">
<title>interv&#45;&gt;natura</title>
<path fill="none" stroke="#17324d" d="M503.11,-512C562.2,-512 643.74,-512 695.03,-512"/>
<polygon fill="#17324d" stroke="#17324d" points="695.06,-514.45 702.06,-512 695.06,-509.55 695.06,-514.45"/>
<text text-anchor="middle" x="593.5" y="-524.4" font-family="DejaVu Sans" font-size="9.50" fill="#17324d"> &#160;ha natura</text>
<text text-anchor="middle" x="593.5" y="-514.4" font-family="DejaVu Sans" font-size="9.50" fill="#17324d">intervento &#160;</text>
</g>
<!-- settore -->
<g id="node9" class="node">
<title>settore</title>
<path fill="#e6ecf2" stroke="#17324d" stroke-width="1.2" d="M774.5,-601C774.5,-601 714.5,-601 714.5,-601 708.5,-601 702.5,-595 702.5,-589 702.5,-589 702.5,-575 702.5,-575 702.5,-569 708.5,-563 714.5,-563 714.5,-563 774.5,-563 774.5,-563 780.5,-563 786.5,-569 786.5,-575 786.5,-575 786.5,-589 786.5,-589 786.5,-595 780.5,-601 774.5,-601"/>
<text text-anchor="middle" x="744.5" y="-585.2" font-family="DejaVu Sans" font-size="11.00" fill="#17324d">Settore di</text>
<text text-anchor="middle" x="744.5" y="-573.2" font-family="DejaVu Sans" font-size="11.00" fill="#17324d">intervento</text>
</g>
<!-- interv&#45;&gt;settore -->
<g id="edge11" class="edge">
<title>interv&#45;&gt;settore</title>
<path fill="none" stroke="#17324d" d="M500.37,-531.01C512.55,-534.13 525.12,-537.24 537,-540 590.9,-552.52 653.19,-564.91 695.14,-572.95"/>
<polygon fill="#17324d" stroke="#17324d" points="694.88,-575.39 702.22,-574.3 695.8,-570.58 694.88,-575.39"/>
<text text-anchor="middle" x="593.5" y="-575.4" font-family="DejaVu Sans" font-size="9.50" fill="#17324d"> &#160;ha settore</text>
<text text-anchor="middle" x="593.5" y="-565.4" font-family="DejaVu Sans" font-size="9.50" fill="#17324d">intervento &#160;</text>
</g>
<!-- tipol -->
<g id="node10" class="node">
<title>tipol</title>
<path fill="#e6ecf2" stroke="#17324d" stroke-width="1.2" d="M1016.5,-487C1016.5,-487 950.5,-487 950.5,-487 944.5,-487 938.5,-481 938.5,-475 938.5,-475 938.5,-461 938.5,-461 938.5,-455 944.5,-449 950.5,-449 950.5,-449 1016.5,-449 1016.5,-449 1022.5,-449 1028.5,-455 1028.5,-461 1028.5,-461 1028.5,-475 1028.5,-475 1028.5,-481 1022.5,-487 1016.5,-487"/>
<text text-anchor="middle" x="983.5" y="-471.2" font-family="DejaVu Sans" font-size="11.00" fill="#17324d">Tipologia di</text>
<text text-anchor="middle" x="983.5" y="-459.2" font-family="DejaVu Sans" font-size="11.00" fill="#17324d">intervento</text>
</g>
<!-- interv&#45;&gt;tipol -->
<g id="edge12" class="edge">
<title>interv&#45;&gt;tipol</title>
<path fill="none" stroke="#17324d" d="M498.34,-492.98C548.89,-479.94 619.65,-463.81 683,-457 737.35,-451.16 751.36,-455.3 806,-457 848.11,-458.31 895.8,-461.38 930.98,-463.94"/>
<polygon fill="#17324d" stroke="#17324d" points="931.13,-466.41 938.29,-464.48 931.49,-461.52 931.13,-466.41"/>
<text text-anchor="middle" x="744.5" y="-469.4" font-family="DejaVu Sans" font-size="9.50" fill="#17324d"> &#160;ha tipologia</text>
<text text-anchor="middle" x="744.5" y="-459.4" font-family="DejaVu Sans" font-size="9.50" fill="#17324d">intervento &#160;</text>
</g>
<!-- attofin -->
<g id="node5" class="node">
<title>attofin</title>
<path fill="#e6ecf2" stroke="#17324d" stroke-width="1.2" d="M149,-71C149,-71 25,-71 25,-71 19,-71 13,-65 13,-59 13,-59 13,-45 13,-45 13,-39 19,-33 25,-33 25,-33 149,-33 149,-33 155,-33 161,-39 161,-45 161,-45 161,-59 161,-59 161,-65 155,-71 149,-71"/>
<text text-anchor="middle" x="87" y="-55.2" font-family="DejaVu Sans" font-size="11.00" fill="#17324d">Atto finanziamento</text>
<text text-anchor="middle" x="87" y="-43.2" font-family="DejaVu Sans" font-size="11.00" fill="#17324d">investimento pubblico</text>
</g>
<!-- attofin&#45;&gt;cup -->
<g id="edge16" class="edge">
<title>attofin&#45;&gt;cup</title>
<path fill="none" stroke="#17324d" d="M161.36,-52C220.33,-52 302.53,-52 360.03,-52"/>
<polygon fill="#17324d" stroke="#17324d" points="360.26,-54.45 367.26,-52 360.26,-49.55 360.26,-54.45"/>
<text text-anchor="middle" x="264" y="-54.4" font-family="DejaVu Sans" font-size="9.50" fill="#17324d"> &#160;riferisce cup &#160;</text>
</g>
<!-- natura&#45;&gt;tipol -->
<g id="edge13" class="edge">
<title>natura&#45;&gt;tipol</title>
<path fill="none" stroke="#17324d" stroke-dasharray="5,2" d="M786.51,-504.39C826.67,-496.93 887.97,-485.55 931.31,-477.5"/>
<polygon fill="#17324d" stroke="#17324d" points="931.94,-479.88 938.37,-476.19 931.04,-475.06 931.94,-479.88"/>
<text text-anchor="middle" x="871" y="-505.4" font-family="DejaVu Sans" font-size="9.50" fill="#17324d"> &#160;ha tipologia</text>
<text text-anchor="middle" x="871" y="-495.4" font-family="DejaVu Sans" font-size="9.50" fill="#17324d">per natura &#160;</text>
</g>
<!-- tema&#45;&gt;subinv -->
<g id="edge8" class="edge">
<title>tema&#45;&gt;subinv</title>
<path fill="none" stroke="#2e7d32" d="M468.71,-424.78C488.86,-415.61 514.02,-404.64 537,-396 582.73,-378.82 635.26,-362.33 675.89,-350.25"/>
<polygon fill="#2e7d32" stroke="#2e7d32" points="676.8,-352.54 682.82,-348.2 675.41,-347.84 676.8,-352.54"/>
<text text-anchor="middle" x="593.5" y="-408.4" font-family="DejaVu Sans" font-size="9.50" fill="#2e7d32"> &#160;prevede</text>
<text text-anchor="middle" x="593.5" y="-398.4" font-family="DejaVu Sans" font-size="9.50" fill="#2e7d32">sub&#45;investimento pnrr &#160;</text>
</g>
<!-- target -->
<g id="node14" class="node">
<title>target</title>
<path fill="#eef5ee" stroke="#2e7d32" stroke-width="1.2" d="M1019,-349C1019,-349 948,-349 948,-349 942,-349 936,-343 936,-337 936,-337 936,-325 936,-325 936,-319 942,-313 948,-313 948,-313 1019,-313 1019,-313 1025,-313 1031,-319 1031,-325 1031,-325 1031,-337 1031,-337 1031,-343 1025,-349 1019,-349"/>
<text text-anchor="middle" x="983.5" y="-328.2" font-family="DejaVu Sans" font-size="11.00" fill="#2e7d32">Target PNRR</text>
</g>
<!-- subinv&#45;&gt;target -->
<g id="edge9" class="edge">
<title>subinv&#45;&gt;target</title>
<path fill="none" stroke="#2e7d32" d="M806.23,-331C844.03,-331 892.21,-331 928.65,-331"/>
<polygon fill="#2e7d32" stroke="#2e7d32" points="928.77,-333.45 935.77,-331 928.77,-328.55 928.77,-333.45"/>
<text text-anchor="middle" x="871" y="-343.4" font-family="DejaVu Sans" font-size="9.50" fill="#2e7d32"> &#160;prevede</text>
<text text-anchor="middle" x="871" y="-333.4" font-family="DejaVu Sans" font-size="9.50" fill="#2e7d32">target pnrr &#160;</text>
</g>
</g>
</svg>
