<svg xmlns="http://www.w3.org/2000/svg" viewBox="0 0 1200 210" role="img" aria-label="Ontologia del dominio degli Investimenti Pubblici">
<rect width="1200" height="210" fill="#0066cc"/>
<rect width="10" height="210" fill="#0bcbc5"/>
<g transform="translate(381.6 78.0) scale(0.046000 -0.046000)" fill="#ffffff"><path transform="translate(0 0)" d="M215.5 160.5Q245 108 326.0 108.0Q407 108 436.5 160.5Q466 213 466.0 336.5Q466 460 436.0 516.0Q406 572 326.0 572.0Q246 572 216.0 516.0Q186 460 186.0 336.5Q186 213 215.5 160.5ZM544.5 72.5Q481 -12 326.0 -12.0Q171 -12 107.5 72.5Q44 157 44.0 337.0Q44 517 107.5 604.5Q171 692 326.0 692.0Q481 692 544.5 604.5Q608 517 608.0 337.0Q608 157 544.5 72.5Z"/><path transform="translate(652 0)" d="M196 0H62V500H195V472Q263 512 320 512Q420 512 458.0 453.0Q496 394 496 271V0H362V267Q362 331 347.0 361.5Q332 392 287 392Q246 392 208 378L196 374Z"/><path transform="translate(1205 0)" d="M339 386H216V181Q216 151 217.5 138.5Q219 126 228.5 117.0Q238 108 258 108L334 110L340 3Q273 -12 238 -12Q148 -12 115.0 28.5Q82 69 82 178V386H23V500H82V639H216V500H339Z"/><path transform="translate(1569 0)" d="M496 251Q496 -12 266.0 -12.0Q36 -12 36 251Q36 375 89.0 443.5Q142 512 266.0 512.0Q390 512 443.0 443.5Q496 375 496 251ZM192.5 138.0Q213 102 266.0 102.0Q319 102 339.5 138.0Q360 174 360.0 251.0Q360 328 339.5 363.0Q319 398 266.0 398.0Q213 398 192.5 363.0Q172 328 172.0 251.0Q172 174 192.5 138.0Z"/><path transform="translate(2101 0)" d="M68 0V700H202V0Z"/><path transform="translate(2371 0)" d="M496 251Q496 -12 266.0 -12.0Q36 -12 36 251Q36 375 89.0 443.5Q142 512 266.0 512.0Q390 512 443.0 443.5Q496 375 496 251ZM192.5 138.0Q213 102 266.0 102.0Q319 102 339.5 138.0Q360 174 360.0 251.0Q360 328 339.5 363.0Q319 398 266.0 398.0Q213 398 192.5 363.0Q172 328 172.0 251.0Q172 174 192.5 138.0Z"/><path transform="translate(2903 0)" d="M37 -91Q37 -28 109 28Q72 53 72 104Q72 124 102 170L111 184Q43 233 43.0 328.5Q43 424 100.5 467.0Q158 510 253 510Q296 510 338 500L354 497L515 502V395L440 401Q462 367 462 333Q462 233 411.0 195.0Q360 157 251 157Q228 157 210 161Q200 135 200.0 118.5Q200 102 217.0 96.0Q234 90 297 89Q423 88 469.0 55.5Q515 23 515.0 -62.5Q515 -148 449.0 -189.0Q383 -230 270.5 -230.0Q158 -230 97.5 -200.0Q37 -170 37 -91ZM169 -77Q169 -120 274.5 -120.0Q380 -120 380 -70Q380 -43 362.0 -35.5Q344 -28 286 -27L196 -20Q169 -47 169 -77ZM177.0 332.5Q177 259 253.5 259.0Q330 259 330.0 332.5Q330 406 253.5 406.0Q177 406 177.0 332.5Z"/><path transform="translate(3437 0)" d="M62 0V500H196V0ZM62 564V700H196V564Z"/><path transform="translate(3695 0)" d="M445 344V136Q447 112 453.0 102.5Q459 93 478 89L474 -12Q423 -12 392.5 -5.0Q362 2 331 23Q259 -12 184 -12Q29 -12 29 152Q29 232 72.0 265.5Q115 299 204 305L311 313V344Q311 375 297.0 386.5Q283 398 252 398L64 390L60 483Q167 512 263.5 512.0Q360 512 402.5 472.0Q445 432 445 344ZM220 212Q164 207 164.0 152.0Q164 97 213 97Q251 97 296 109L311 113V220Z"/><path transform="translate(4426 0)" d="M487 700V0H354V21Q284 -12 233 -12Q124 -12 81.0 51.0Q38 114 38.0 250.5Q38 387 89.5 449.5Q141 512 245 512Q277 512 334 502L353 498V700ZM339 120 353 123V386Q298 396 255 396Q174 396 174 252Q174 174 192.0 141.0Q210 108 251.5 108.0Q293 108 339 120Z"/><path transform="translate(4975 0)" d="M264 106Q357 106 430 112L458 115L460 16Q345 -12 252 -12Q139 -12 88.0 48.0Q37 108 37 243Q37 512 258 512Q476 512 476 286L466 193H172Q173 147 196.5 126.5Q220 106 264 106ZM344 295Q344 355 325.0 378.5Q306 402 258.5 402.0Q211 402 191.5 377.5Q172 353 171 295Z"/><path transform="translate(5485 0)" d="M68 0V700H202V0Z"/><path transform="translate(5975 0)" d="M487 700V0H354V21Q284 -12 233 -12Q124 -12 81.0 51.0Q38 114 38.0 250.5Q38 387 89.5 449.5Q141 512 245 512Q277 512 334 502L353 498V700ZM339 120 353 123V386Q298 396 255 396Q174 396 174 252Q174 174 192.0 141.0Q210 108 251.5 108.0Q293 108 339 120Z"/><path transform="translate(6524 0)" d="M496 251Q496 -12 266.0 -12.0Q36 -12 36 251Q36 375 89.0 443.5Q142 512 266.0 512.0Q390 512 443.0 443.5Q496 375 496 251ZM192.5 138.0Q213 102 266.0 102.0Q319 102 339.5 138.0Q360 174 360.0 251.0Q360 328 339.5 363.0Q319 398 266.0 398.0Q213 398 192.5 363.0Q172 328 172.0 251.0Q172 174 192.5 138.0Z"/><path transform="translate(7056 0)" d="M196 0H62V500H195V472Q264 512 313 512Q394 512 438 465Q530 512 606 512Q705 512 743.5 454.5Q782 397 782 271V0H648V267Q648 331 634.0 361.5Q620 392 578 392Q546 392 500 378L485 373Q489 298 489 259V0H355V257Q355 331 342.0 361.5Q329 392 285 392Q246 392 208 378L196 374Z"/><path transform="translate(7895 0)" d="M62 0V500H196V0ZM62 564V700H196V564Z"/><path transform="translate(8153 0)" d="M196 0H62V500H195V472Q263 512 320 512Q420 512 458.0 453.0Q496 394 496 271V0H362V267Q362 331 347.0 361.5Q332 392 287 392Q246 392 208 378L196 374Z"/><path transform="translate(8706 0)" d="M62 0V500H196V0ZM62 564V700H196V564Z"/><path transform="translate(8964 0)" d="M496 251Q496 -12 266.0 -12.0Q36 -12 36 251Q36 375 89.0 443.5Q142 512 266.0 512.0Q390 512 443.0 443.5Q496 375 496 251ZM192.5 138.0Q213 102 266.0 102.0Q319 102 339.5 138.0Q360 174 360.0 251.0Q360 328 339.5 363.0Q319 398 266.0 398.0Q213 398 192.5 363.0Q172 328 172.0 251.0Q172 174 192.5 138.0Z"/></g>
<g transform="translate(335.8 132.0) scale(0.046000 -0.046000)" fill="#ffffff"><path transform="translate(0 0)" d="M487 700V0H354V21Q284 -12 233 -12Q124 -12 81.0 51.0Q38 114 38.0 250.5Q38 387 89.5 449.5Q141 512 245 512Q277 512 334 502L353 498V700ZM339 120 353 123V386Q298 396 255 396Q174 396 174 252Q174 174 192.0 141.0Q210 108 251.5 108.0Q293 108 339 120Z"/><path transform="translate(549 0)" d="M264 106Q357 106 430 112L458 115L460 16Q345 -12 252 -12Q139 -12 88.0 48.0Q37 108 37 243Q37 512 258 512Q476 512 476 286L466 193H172Q173 147 196.5 126.5Q220 106 264 106ZM344 295Q344 355 325.0 378.5Q306 402 258.5 402.0Q211 402 191.5 377.5Q172 353 171 295Z"/><path transform="translate(1059 0)" d="M37 -91Q37 -28 109 28Q72 53 72 104Q72 124 102 170L111 184Q43 233 43.0 328.5Q43 424 100.5 467.0Q158 510 253 510Q296 510 338 500L354 497L515 502V395L440 401Q462 367 462 333Q462 233 411.0 195.0Q360 157 251 157Q228 157 210 161Q200 135 200.0 118.5Q200 102 217.0 96.0Q234 90 297 89Q423 88 469.0 55.5Q515 23 515.0 -62.5Q515 -148 449.0 -189.0Q383 -230 270.5 -230.0Q158 -230 97.5 -200.0Q37 -170 37 -91ZM169 -77Q169 -120 274.5 -120.0Q380 -120 380 -70Q380 -43 362.0 -35.5Q344 -28 286 -27L196 -20Q169 -47 169 -77ZM177.0 332.5Q177 259 253.5 259.0Q330 259 330.0 332.5Q330 406 253.5 406.0Q177 406 177.0 332.5Z"/><path transform="translate(1593 0)" d="M68 0V700H202V0Z"/><path transform="translate(1863 0)" d="M62 0V500H196V0ZM62 564V700H196V564Z"/><path transform="translate(2341 0)" d="M74 0V680H212V0Z"/><path transform="translate(2627 0)" d="M196 0H62V500H195V472Q263 512 320 512Q420 512 458.0 453.0Q496 394 496 271V0H362V267Q362 331 347.0 361.5Q332 392 287 392Q246 392 208 378L196 374Z"/><path transform="translate(3180 0)" d="M15 500H155L235 114H263L347 500H483L363 0H135Z"/><path transform="translate(3678 0)" d="M264 106Q357 106 430 112L458 115L460 16Q345 -12 252 -12Q139 -12 88.0 48.0Q37 108 37 243Q37 512 258 512Q476 512 476 286L466 193H172Q173 147 196.5 126.5Q220 106 264 106ZM344 295Q344 355 325.0 378.5Q306 402 258.5 402.0Q211 402 191.5 377.5Q172 353 171 295Z"/><path transform="translate(4188 0)" d="M421 375Q297 391 247.5 391.0Q198 391 183.5 382.0Q169 373 169.0 353.5Q169 334 188.5 326.5Q208 319 288.5 304.5Q369 290 403.0 257.0Q437 224 437 150Q437 -12 236 -12Q170 -12 76 6L44 12L48 124Q172 108 220.5 108.0Q269 108 286.5 117.5Q304 127 304.0 146.0Q304 165 285.5 174.0Q267 183 189.5 196.0Q112 209 74.0 240.0Q36 271 36.0 350.5Q36 430 90.0 470.5Q144 511 229 511Q288 511 390 492L423 486Z"/><path transform="translate(4660 0)" d="M339 386H216V181Q216 151 217.5 138.5Q219 126 228.5 117.0Q238 108 258 108L334 110L340 3Q273 -12 238 -12Q148 -12 115.0 28.5Q82 69 82 178V386H23V500H82V639H216V500H339Z"/><path transform="translate(5024 0)" d="M62 0V500H196V0ZM62 564V700H196V564Z"/><path transform="translate(5282 0)" d="M196 0H62V500H195V472Q264 512 313 512Q394 512 438 465Q530 512 606 512Q705 512 743.5 454.5Q782 397 782 271V0H648V267Q648 331 634.0 361.5Q620 392 578 392Q546 392 500 378L485 373Q489 298 489 259V0H355V257Q355 331 342.0 361.5Q329 392 285 392Q246 392 208 378L196 374Z"/><path transform="translate(6121 0)" d="M264 106Q357 106 430 112L458 115L460 16Q345 -12 252 -12Q139 -12 88.0 48.0Q37 108 37 243Q37 512 258 512Q476 512 476 286L466 193H172Q173 147 196.5 126.5Q220 106 264 106ZM344 295Q344 355 325.0 378.5Q306 402 258.5 402.0Q211 402 191.5 377.5Q172 353 171 295Z"/><path transform="translate(6631 0)" d="M196 0H62V500H195V472Q263 512 320 512Q420 512 458.0 453.0Q496 394 496 271V0H362V267Q362 331 347.0 361.5Q332 392 287 392Q246 392 208 378L196 374Z"/><path transform="translate(7184 0)" d="M339 386H216V181Q216 151 217.5 138.5Q219 126 228.5 117.0Q238 108 258 108L334 110L340 3Q273 -12 238 -12Q148 -12 115.0 28.5Q82 69 82 178V386H23V500H82V639H216V500H339Z"/><path transform="translate(7548 0)" d="M62 0V500H196V0ZM62 564V700H196V564Z"/><path transform="translate(8026 0)" d="M324 198H212V0H74V680H324Q566 680 566 444Q566 325 504.5 261.5Q443 198 324 198ZM212 316H323Q426 316 426 444Q426 507 401.0 534.5Q376 562 323 562H212Z"/><path transform="translate(8615 0)" d="M357 500H491V0H358V28Q286 -12 233 -12Q129 -12 93.0 45.5Q57 103 57 238V500H191V236Q191 162 203.0 135.0Q215 108 261 108Q305 108 344 122L357 126Z"/><path transform="translate(9168 0)" d="M304 512Q409 512 457.5 454.5Q506 397 506.0 249.0Q506 101 450.0 44.5Q394 -12 257 -12Q214 -12 100 -2L62 2V700H196V485Q260 512 304 512ZM257 108Q324 108 347.0 140.5Q370 173 370 257Q370 392 286 392Q246 392 210 382L196 379V112Q242 108 257 108Z"/><path transform="translate(9712 0)" d="M304 512Q409 512 457.5 454.5Q506 397 506.0 249.0Q506 101 450.0 44.5Q394 -12 257 -12Q214 -12 100 -2L62 2V700H196V485Q260 512 304 512ZM257 108Q324 108 347.0 140.5Q370 173 370 257Q370 392 286 392Q246 392 210 382L196 379V112Q242 108 257 108Z"/><path transform="translate(10256 0)" d="M68 0V700H202V0Z"/><path transform="translate(10526 0)" d="M62 0V500H196V0ZM62 564V700H196V564Z"/><path transform="translate(10784 0)" d="M249 512Q301 512 382 496L409 490L405 384Q326 392 288 392Q219 392 196.5 362.5Q174 333 174.0 251.0Q174 169 196.5 138.5Q219 108 289 108L405 116L409 9Q302 -12 246 -12Q135 -12 86.5 50.5Q38 113 38.0 251.0Q38 389 88.0 450.5Q138 512 249 512Z"/><path transform="translate(11230 0)" d="M62 0V500H196V0ZM62 564V700H196V564Z"/></g>
<rect x="555.0" y="152" width="90" height="3" fill="#0bcbc5"/>
<g transform="translate(282.3 184.0) scale(0.019000 -0.019000)" fill="#bfdfff"><path transform="translate(0 0)" d="M338 233H162V0H85V692H338Q451 692 505.0 637.0Q559 582 559 469Q559 233 338 233ZM162 301H337Q480 301 480 469Q480 549 446.0 586.5Q412 624 337 624H162Z"/><path transform="translate(614 0)" d="M384 500H459V0H384V35Q309 -10 236 -10Q134 -10 100.5 43.0Q67 96 67 239V500H142V240Q142 131 161.0 94.0Q180 57 247 57Q280 57 314.0 66.5Q348 76 366 85L384 94Z"/><path transform="translate(1166 0)" d="M293 510Q394 510 434.5 452.5Q475 395 475.0 251.0Q475 107 424.5 48.5Q374 -10 239 -10Q197 -10 100 -2L72 1V718H146V475Q222 510 293 510ZM238 57Q336 57 367.5 101.5Q399 146 399.0 252.0Q399 358 374.0 400.5Q349 443 285 443Q227 443 166 421L146 414V62Q211 57 238 57Z"/><path transform="translate(1713 0)" d="M78 0V718H153V0Z"/><path transform="translate(1965 0)" d="M72 0V500H147V0ZM72 613V700H147V613Z"/><path transform="translate(2205 0)" d="M259 510Q292 510 371 498L395 495L392 434Q312 443 274 443Q189 443 158.5 402.5Q128 362 128.0 252.5Q128 143 156.5 100.0Q185 57 275 57L393 66L396 4Q303 -10 257 -10Q140 -10 95.5 50.0Q51 110 51.0 252.5Q51 395 99.0 452.5Q147 510 259 510Z"/><path transform="translate(2662 0)" d="M85 0V692H162V0Z"/><path transform="translate(2929 0)" d="M147 0H72V500H146V465Q227 510 301 510Q401 510 435.5 456.0Q470 402 470 264V0H396V262Q396 366 375.5 404.5Q355 443 288 443Q256 443 220.5 433.5Q185 424 166 415L147 406Z"/><path transform="translate(3487 0)" d="M25 500H105L222 65H259L380 500H457L316 0H166Z"/><path transform="translate(3989 0)" d="M412 62 441 65 443 6Q329 -10 248 -10Q140 -10 95.0 52.5Q50 115 50 247Q50 510 259 510Q360 510 410.0 453.5Q460 397 460 276L456 219H126Q126 136 156.0 96.0Q186 56 260.5 56.0Q335 56 412 62ZM385 279Q385 371 355.5 409.0Q326 447 259.5 447.0Q193 447 159.5 407.0Q126 367 125 279Z"/><path transform="translate(4516 0)" d="M229 443Q120 443 120 367Q120 332 145.0 317.5Q170 303 259.0 287.5Q348 272 385.0 244.0Q422 216 422.0 139.0Q422 62 372.5 26.0Q323 -10 228 -10Q166 -10 82 4L52 9L56 74Q170 57 228.0 57.0Q286 57 316.5 75.5Q347 94 347.0 137.5Q347 181 321.0 196.5Q295 212 207.0 226.0Q119 240 82.0 267.0Q45 294 45.0 367.0Q45 440 96.5 475.0Q148 510 225 510Q286 510 378 496L406 491L404 427Q293 443 229 443Z"/><path transform="translate(5002 0)" d="M331 435H172V196Q172 110 184.5 83.0Q197 56 244 56L333 62L338 0Q271 -11 236 -11Q158 -11 128.0 27.0Q98 65 98 172V435H27V500H98V653H172V500H331Z"/><path transform="translate(5374 0)" d="M147 0H72V500H146V465Q221 510 292 510Q385 510 422 459Q455 479 507.5 494.5Q560 510 600 510Q700 510 734.5 456.5Q769 403 769 264V0H694V262Q694 366 674.0 404.5Q654 443 589 443Q556 443 521.0 433.5Q486 424 467 415L448 406Q461 373 461 260V0H386V258Q386 366 366.5 404.5Q347 443 281 443Q249 443 215.5 433.5Q182 424 164 415L147 406Z"/><path transform="translate(6231 0)" d="M412 62 441 65 443 6Q329 -10 248 -10Q140 -10 95.0 52.5Q50 115 50 247Q50 510 259 510Q360 510 410.0 453.5Q460 397 460 276L456 219H126Q126 136 156.0 96.0Q186 56 260.5 56.0Q335 56 412 62ZM385 279Q385 371 355.5 409.0Q326 447 259.5 447.0Q193 447 159.5 407.0Q126 367 125 279Z"/><path transform="translate(6757 0)" d="M147 0H72V500H146V465Q227 510 301 510Q401 510 435.5 456.0Q470 402 470 264V0H396V262Q396 366 375.5 404.5Q355 443 288 443Q256 443 220.5 433.5Q185 424 166 415L147 406Z"/><path transform="translate(7315 0)" d="M331 435H172V196Q172 110 184.5 83.0Q197 56 244 56L333 62L338 0Q271 -11 236 -11Q158 -11 128.0 27.0Q98 65 98 172V435H27V500H98V653H172V500H331Z"/><path transform="translate(8169 0)" d="M68 229V343H150V229Z"/><path transform="translate(8889 0)" d="M72 -222V500H146V464Q222 510 296 510Q391 510 434.0 449.5Q477 389 477.0 250.0Q477 111 426.5 50.5Q376 -10 259 -10Q198 -10 147 1V-222ZM285 443Q255 443 220.5 433.0Q186 423 166 413L147 403V66Q218 55 255 55Q336 55 368.5 101.0Q401 147 401.0 251.0Q401 355 371.5 399.0Q342 443 285 443Z"/><path transform="translate(9437 0)" d="M72 0V500H146V432Q233 492 329 511V435Q287 427 241.5 410.0Q196 393 172 380L147 367V0Z"/><path transform="translate(9804 0)" d="M412 62 441 65 443 6Q329 -10 248 -10Q140 -10 95.0 52.5Q50 115 50 247Q50 510 259 510Q360 510 410.0 453.5Q460 397 460 276L456 219H126Q126 136 156.0 96.0Q186 56 260.5 56.0Q335 56 412 62ZM385 279Q385 371 355.5 409.0Q326 447 259.5 447.0Q193 447 159.5 407.0Q126 367 125 279Z"/><path transform="translate(10330 0)" d="M168 435V0H93V435H30V500H93V545Q93 651 123.0 689.5Q153 728 228 728L329 721L328 659Q272 661 235.5 661.0Q199 661 183.5 637.0Q168 613 168 544V500H313V435Z"/><path transform="translate(10682 0)" d="M72 0V500H147V0ZM72 613V700H147V613Z"/><path transform="translate(10922 0)" d="M229 443Q120 443 120 367Q120 332 145.0 317.5Q170 303 259.0 287.5Q348 272 385.0 244.0Q422 216 422.0 139.0Q422 62 372.5 26.0Q323 -10 228 -10Q166 -10 82 4L52 9L56 74Q170 57 228.0 57.0Q286 57 316.5 75.5Q347 94 347.0 137.5Q347 181 321.0 196.5Q295 212 207.0 226.0Q119 240 82.0 267.0Q45 294 45.0 367.0Q45 440 96.5 475.0Q148 510 225 510Q286 510 378 496L406 491L404 427Q293 443 229 443Z"/><path transform="translate(11408 0)" d="M229 443Q120 443 120 367Q120 332 145.0 317.5Q170 303 259.0 287.5Q348 272 385.0 244.0Q422 216 422.0 139.0Q422 62 372.5 26.0Q323 -10 228 -10Q166 -10 82 4L52 9L56 74Q170 57 228.0 57.0Q286 57 316.5 75.5Q347 94 347.0 137.5Q347 181 321.0 196.5Q295 212 207.0 226.0Q119 240 82.0 267.0Q45 294 45.0 367.0Q45 440 96.5 475.0Q148 510 225 510Q286 510 378 496L406 491L404 427Q293 443 229 443Z"/><path transform="translate(11894 0)" d="M50.0 251.0Q50 388 99.0 449.0Q148 510 264.5 510.0Q381 510 429.5 449.0Q478 388 478.0 251.0Q478 114 432.0 52.0Q386 -10 264.0 -10.0Q142 -10 96.0 52.0Q50 114 50.0 251.0ZM127.0 252.5Q127 143 153.5 99.0Q180 55 264.5 55.0Q349 55 375.0 98.5Q401 142 401.0 252.0Q401 362 372.0 403.5Q343 445 264.5 445.0Q186 445 156.5 403.5Q127 362 127.0 252.5Z"/><path transform="translate(12685 0)" d="M72 -222V500H146V464Q222 510 296 510Q391 510 434.0 449.5Q477 389 477.0 250.0Q477 111 426.5 50.5Q376 -10 259 -10Q198 -10 147 1V-222ZM285 443Q255 443 220.5 433.0Q186 423 166 413L147 403V66Q218 55 255 55Q336 55 368.5 101.0Q401 147 401.0 251.0Q401 355 371.5 399.0Q342 443 285 443Z"/><path transform="translate(13233 0)" d="M72 0V500H147V0ZM72 613V700H147V613Z"/><path transform="translate(13955 0)" d="M68 229V343H150V229Z"/><path transform="translate(14675 0)" d="M503 11Q400 -10 318.0 -10.0Q236 -10 185.5 12.5Q135 35 107.5 82.5Q80 130 69.5 191.5Q59 253 59.0 345.0Q59 437 69.5 499.5Q80 562 107.5 610.0Q135 658 185.0 680.0Q235 702 315.0 702.0Q395 702 503 680L500 615Q399 633 320 633Q210 633 174.5 567.5Q139 502 139 344Q139 265 145.5 217.0Q152 169 171.0 130.5Q190 92 226.5 75.5Q263 59 333.5 59.0Q404 59 500 77Z"/><path transform="translate(15240 0)" d="M50.0 251.0Q50 388 99.0 449.0Q148 510 264.5 510.0Q381 510 429.5 449.0Q478 388 478.0 251.0Q478 114 432.0 52.0Q386 -10 264.0 -10.0Q142 -10 96.0 52.0Q50 114 50.0 251.0ZM127.0 252.5Q127 143 153.5 99.0Q180 55 264.5 55.0Q349 55 375.0 98.5Q401 142 401.0 252.0Q401 362 372.0 403.5Q343 445 264.5 445.0Q186 445 156.5 403.5Q127 362 127.0 252.5Z"/><path transform="translate(15789 0)" d="M456 718V0H382V34Q305 -10 230 -10Q190 -10 160.0 0.0Q130 10 104 36Q50 90 50.0 235.5Q50 381 98.5 445.5Q147 510 259 510Q317 510 382 497V718ZM362 85 382 94V433Q318 445 263 445Q187 445 157.0 396.5Q127 348 127 246Q127 130 162 90Q178 71 196.0 64.0Q214 57 242.5 57.0Q271 57 306.5 66.5Q342 76 362 85Z"/><path transform="translate(16339 0)" d="M72 0V500H147V0ZM72 613V700H147V613Z"/><path transform="translate(16579 0)" d="M259 510Q292 510 371 498L395 495L392 434Q312 443 274 443Q189 443 158.5 402.5Q128 362 128.0 252.5Q128 143 156.5 100.0Q185 57 275 57L393 66L396 4Q303 -10 257 -10Q140 -10 95.5 50.0Q51 110 51.0 252.5Q51 395 99.0 452.5Q147 510 259 510Z"/><path transform="translate(17036 0)" d="M412 62 441 65 443 6Q329 -10 248 -10Q140 -10 95.0 52.5Q50 115 50 247Q50 510 259 510Q360 510 410.0 453.5Q460 397 460 276L456 219H126Q126 136 156.0 96.0Q186 56 260.5 56.0Q335 56 412 62ZM385 279Q385 371 355.5 409.0Q326 447 259.5 447.0Q193 447 159.5 407.0Q126 367 125 279Z"/><path transform="translate(17803 0)" d="M157 208Q157 58 319 58Q403 58 445.5 93.5Q488 129 488 208V692H564V210Q564 94 502.5 42.0Q441 -10 321.0 -10.0Q201 -10 140.5 42.0Q80 94 80 210V692H157Z"/><path transform="translate(18468 0)" d="M147 0H72V500H146V465Q227 510 301 510Q401 510 435.5 456.0Q470 402 470 264V0H396V262Q396 366 375.5 404.5Q355 443 288 443Q256 443 220.5 433.5Q185 424 166 415L147 406Z"/><path transform="translate(19026 0)" d="M72 0V500H147V0ZM72 613V700H147V613Z"/><path transform="translate(19266 0)" d="M259 510Q292 510 371 498L395 495L392 434Q312 443 274 443Q189 443 158.5 402.5Q128 362 128.0 252.5Q128 143 156.5 100.0Q185 57 275 57L393 66L396 4Q303 -10 257 -10Q140 -10 95.5 50.0Q51 110 51.0 252.5Q51 395 99.0 452.5Q147 510 259 510Z"/><path transform="translate(19724 0)" d="M50.0 251.0Q50 388 99.0 449.0Q148 510 264.5 510.0Q381 510 429.5 449.0Q478 388 478.0 251.0Q478 114 432.0 52.0Q386 -10 264.0 -10.0Q142 -10 96.0 52.0Q50 114 50.0 251.0ZM127.0 252.5Q127 143 153.5 99.0Q180 55 264.5 55.0Q349 55 375.0 98.5Q401 142 401.0 252.0Q401 362 372.0 403.5Q343 445 264.5 445.0Q186 445 156.5 403.5Q127 362 127.0 252.5Z"/><path transform="translate(20514 0)" d="M456 718V0H382V34Q305 -10 230 -10Q190 -10 160.0 0.0Q130 10 104 36Q50 90 50.0 235.5Q50 381 98.5 445.5Q147 510 259 510Q317 510 382 497V718ZM362 85 382 94V433Q318 445 263 445Q187 445 157.0 396.5Q127 348 127 246Q127 130 162 90Q178 71 196.0 64.0Q214 57 242.5 57.0Q271 57 306.5 66.5Q342 76 362 85Z"/><path transform="translate(21064 0)" d="M72 0V500H147V0ZM72 613V700H147V613Z"/><path transform="translate(21545 0)" d="M338 233H162V0H85V692H338Q451 692 505.0 637.0Q559 582 559 469Q559 233 338 233ZM162 301H337Q480 301 480 469Q480 549 446.0 586.5Q412 624 337 624H162Z"/><path transform="translate(22159 0)" d="M72 0V500H146V432Q233 492 329 511V435Q287 427 241.5 410.0Q196 393 172 380L147 367V0Z"/><path transform="translate(22526 0)" d="M50.0 251.0Q50 388 99.0 449.0Q148 510 264.5 510.0Q381 510 429.5 449.0Q478 388 478.0 251.0Q478 114 432.0 52.0Q386 -10 264.0 -10.0Q142 -10 96.0 52.0Q50 114 50.0 251.0ZM127.0 252.5Q127 143 153.5 99.0Q180 55 264.5 55.0Q349 55 375.0 98.5Q401 142 401.0 252.0Q401 362 372.0 403.5Q343 445 264.5 445.0Q186 445 156.5 403.5Q127 362 127.0 252.5Z"/><path transform="translate(23075 0)" d="M265 -235Q145 -235 97.5 -202.5Q50 -170 50 -84Q50 -43 68.0 -17.5Q86 8 129 40Q101 59 101 109Q101 126 126 172L135 188Q56 224 56 339Q56 510 243 510Q291 510 332 500L347 497L495 501V437L400 439Q433 406 433 339Q433 245 386.5 207.5Q340 170 240 170Q213 170 191 174Q173 130 173 117Q173 86 192.0 78.5Q211 71 307.0 71.0Q403 71 445.0 41.0Q487 11 487 -76Q487 -235 265 -235ZM124 -78Q124 -131 153.5 -151.5Q183 -172 262.5 -172.0Q342 -172 376.5 -150.0Q411 -128 411.0 -76.5Q411 -25 386.0 -10.0Q361 5 288 5L180 10Q147 -14 135.5 -32.0Q124 -50 124 -78ZM131.0 339.0Q131 280 157.5 255.0Q184 230 245.0 230.0Q306 230 332.0 255.0Q358 280 358.0 339.5Q358 399 332.0 424.0Q306 449 245.0 449.0Q184 449 157.5 423.5Q131 398 131.0 339.0Z"/><path transform="translate(23610 0)" d="M412 62 441 65 443 6Q329 -10 248 -10Q140 -10 95.0 52.5Q50 115 50 247Q50 510 259 510Q360 510 410.0 453.5Q460 397 460 276L456 219H126Q126 136 156.0 96.0Q186 56 260.5 56.0Q335 56 412 62ZM385 279Q385 371 355.5 409.0Q326 447 259.5 447.0Q193 447 159.5 407.0Q126 367 125 279Z"/><path transform="translate(24136 0)" d="M331 435H172V196Q172 110 184.5 83.0Q197 56 244 56L333 62L338 0Q271 -11 236 -11Q158 -11 128.0 27.0Q98 65 98 172V435H27V500H98V653H172V500H331Z"/><path transform="translate(24508 0)" d="M331 435H172V196Q172 110 184.5 83.0Q197 56 244 56L333 62L338 0Q271 -11 236 -11Q158 -11 128.0 27.0Q98 65 98 172V435H27V500H98V653H172V500H331Z"/><path transform="translate(24880 0)" d="M50.0 251.0Q50 388 99.0 449.0Q148 510 264.5 510.0Q381 510 429.5 449.0Q478 388 478.0 251.0Q478 114 432.0 52.0Q386 -10 264.0 -10.0Q142 -10 96.0 52.0Q50 114 50.0 251.0ZM127.0 252.5Q127 143 153.5 99.0Q180 55 264.5 55.0Q349 55 375.0 98.5Q401 142 401.0 252.0Q401 362 372.0 403.5Q343 445 264.5 445.0Q186 445 156.5 403.5Q127 362 127.0 252.5Z"/><path transform="translate(25670 0)" d="M155 -125Q51 109 51 301Q51 397 77.0 509.5Q103 622 129 686L155 750H227Q192 658 162.0 522.5Q132 387 132.0 301.5Q132 216 156.0 109.5Q180 3 204 -61L227 -125Z"/><path transform="translate(25955 0)" d="M503 11Q400 -10 318.0 -10.0Q236 -10 185.5 12.5Q135 35 107.5 82.5Q80 130 69.5 191.5Q59 253 59.0 345.0Q59 437 69.5 499.5Q80 562 107.5 610.0Q135 658 185.0 680.0Q235 702 315.0 702.0Q395 702 503 680L500 615Q399 633 320 633Q210 633 174.5 567.5Q139 502 139 344Q139 265 145.5 217.0Q152 169 171.0 130.5Q190 92 226.5 75.5Q263 59 333.5 59.0Q404 59 500 77Z"/><path transform="translate(26520 0)" d="M157 208Q157 58 319 58Q403 58 445.5 93.5Q488 129 488 208V692H564V210Q564 94 502.5 42.0Q441 -10 321.0 -10.0Q201 -10 140.5 42.0Q80 94 80 210V692H157Z"/><path transform="translate(27185 0)" d="M338 233H162V0H85V692H338Q451 692 505.0 637.0Q559 582 559 469Q559 233 338 233ZM162 301H337Q480 301 480 469Q480 549 446.0 586.5Q412 624 337 624H162Z"/><path transform="translate(27799 0)" d="M202 431Q213 361 213.0 283.0Q213 205 187.0 98.5Q161 -8 135 -66L109 -125H37Q71 -45 101.5 85.5Q132 216 132.0 301.5Q132 387 108.5 499.0Q85 611 61 680L37 750H109Q175 601 202 431Z"/><path transform="translate(28567 0)" d="M68 229V343H150V229Z"/><path transform="translate(29287 0)" d="M136.0 343.0Q136 191 176.0 124.5Q216 58 330.5 58.0Q445 58 484.5 123.0Q524 188 524.0 341.0Q524 494 483.0 564.0Q442 634 329.5 634.0Q217 634 176.5 564.5Q136 495 136.0 343.0ZM604.0 341.0Q604 156 545.0 73.0Q486 -10 330.5 -10.0Q175 -10 116.0 75.0Q57 160 57.0 342.5Q57 525 117.0 613.5Q177 702 330.0 702.0Q483 702 543.5 614.0Q604 526 604.0 341.0Z"/><path transform="translate(29968 0)" d="M72 -222V500H146V464Q222 510 296 510Q391 510 434.0 449.5Q477 389 477.0 250.0Q477 111 426.5 50.5Q376 -10 259 -10Q198 -10 147 1V-222ZM285 443Q255 443 220.5 433.0Q186 423 166 413L147 403V66Q218 55 255 55Q336 55 368.5 101.0Q401 147 401.0 251.0Q401 355 371.5 399.0Q342 443 285 443Z"/><path transform="translate(30516 0)" d="M412 62 441 65 443 6Q329 -10 248 -10Q140 -10 95.0 52.5Q50 115 50 247Q50 510 259 510Q360 510 410.0 453.5Q460 397 460 276L456 219H126Q126 136 156.0 96.0Q186 56 260.5 56.0Q335 56 412 62ZM385 279Q385 371 355.5 409.0Q326 447 259.5 447.0Q193 447 159.5 407.0Q126 367 125 279Z"/><path transform="translate(31042 0)" d="M147 0H72V500H146V465Q227 510 301 510Q401 510 435.5 456.0Q470 402 470 264V0H396V262Q396 366 375.5 404.5Q355 443 288 443Q256 443 220.5 433.5Q185 424 166 415L147 406Z"/><path transform="translate(31600 0)" d="M503 11Q400 -10 318.0 -10.0Q236 -10 185.5 12.5Q135 35 107.5 82.5Q80 130 69.5 191.5Q59 253 59.0 345.0Q59 437 69.5 499.5Q80 562 107.5 610.0Q135 658 185.0 680.0Q235 702 315.0 702.0Q395 702 503 680L500 615Q399 633 320 633Q210 633 174.5 567.5Q139 502 139 344Q139 265 145.5 217.0Q152 169 171.0 130.5Q190 92 226.5 75.5Q263 59 333.5 59.0Q404 59 500 77Z"/><path transform="translate(32165 0)" d="M157 208Q157 58 319 58Q403 58 445.5 93.5Q488 129 488 208V692H564V210Q564 94 502.5 42.0Q441 -10 321.0 -10.0Q201 -10 140.5 42.0Q80 94 80 210V692H157Z"/><path transform="translate(32830 0)" d="M338 233H162V0H85V692H338Q451 692 505.0 637.0Q559 582 559 469Q559 233 338 233ZM162 301H337Q480 301 480 469Q480 549 446.0 586.5Q412 624 337 624H162Z"/></g>
</svg>